<svg xmlns="http://www.w3.org/2000/svg" viewBox="0 0 1028 813" width="1028" height="813"><style>tspan { white-space:pre }.shp0 { fill: #c63f2b } .shp1 { fill: #f27a24 } .shp2 { fill: #f7ef2b } .shp3 { fill: #fdfbdb } .shp4 { fill: #fff1c7 } .shp5 { fill: #000000 } </style><g ><path class="shp0" d="M632.01 1.75C632.02 2.16 633.79 6.78 635.96 12C638.12 17.23 640.91 25.55 642.15 30.5C643.99 37.8 644.42 42.24 644.42 54C644.42 64.95 643.97 70.09 642.6 75C641.6 78.58 639.68 83.97 638.32 87C636.96 90.03 632.87 97.22 629.23 103C625.6 108.78 620.05 118.9 616.92 125.5C613.78 132.1 609.62 141.78 607.68 147C605.73 152.22 602.36 162.57 600.19 170C598.02 177.43 595.18 188.34 593.87 194.27C592.57 200.19 591.27 205.03 591 205.03C590.73 205.03 589.92 202.66 589.2 199.77C588.49 196.87 586.47 191.57 584.73 188C582.46 183.36 579.03 178.99 572.77 172.75C567.95 167.94 563.33 164 562.5 164C561.44 164 561.17 164.66 561.58 166.25C561.9 167.49 562.4 172.1 562.7 176.5C563.02 181.18 562.75 186.78 562.04 190C561.38 193.03 558.9 199.55 556.52 204.5C554.14 209.45 549.71 216.88 546.67 221C543.64 225.13 539.77 231.54 538.08 235.25C536.39 238.96 534.1 245.26 533 249.25C531.9 253.24 530.72 259.88 530.38 264C530.03 268.28 530.3 274.94 530.99 279.5C531.67 283.9 533.51 291.1 535.1 295.5C536.68 299.9 540.19 307.1 542.88 311.5C545.58 315.9 551.14 323.32 555.24 328C559.34 332.68 564.98 338.3 567.77 340.5C570.56 342.7 573.33 345.51 573.92 346.75C574.9 348.79 574.79 348.94 572.75 348.4C571.51 348.06 567.58 346.17 564 344.19C560.42 342.21 554.01 337.76 549.75 334.29C545.49 330.83 541.77 328.23 541.5 328.5C541.23 328.77 542 330.69 543.23 332.75C544.46 334.81 548.91 340.77 553.11 346C557.32 351.23 564.98 359.56 570.13 364.53C575.28 369.5 583.33 376.46 588 380C592.67 383.54 600.1 388.67 604.5 391.4C608.9 394.12 618.01 398.98 624.75 402.18C631.49 405.38 637.45 407.77 638 407.5C638.55 407.23 639 407.45 639 408C639 408.55 639.45 408.77 640 408.5C640.55 408.23 641 408.45 641 409C641 409.55 641.56 409.72 642.25 409.38C642.97 409.02 640.13 406.99 635.5 404.57C631.1 402.27 624.58 398.43 621 396.03C617.42 393.63 611.13 388.88 607 385.47C602.88 382.07 597.06 376.63 594.08 373.39C591.09 370.15 586.03 364.01 582.83 359.75C579.62 355.49 577 351.55 577 351C577 350.45 580.26 352.74 584.25 356.08C588.24 359.42 594.65 363.67 598.5 365.52C602.35 367.38 605.73 368.67 606 368.39C606.27 368.12 604.92 366.73 603 365.3C601.08 363.88 595.9 359.02 591.5 354.5C587.1 349.98 582.04 343.86 580.26 340.89C578.47 337.93 575.9 332.8 574.53 329.5C573.17 326.2 571.51 319.9 570.84 315.5C569.8 308.64 569.87 306.29 571.31 299C572.23 294.32 574.26 287.8 575.82 284.5C577.38 281.2 580.79 275.57 583.41 272C586.03 268.43 589.44 262.8 591 259.5C592.56 256.2 594.37 250.8 595.02 247.5C595.86 243.3 595.92 240.15 595.23 237C594.69 234.53 593.96 231.71 593.62 230.75C593.28 229.79 593.45 229 594 229C594.55 229 598.41 232.26 602.58 236.25C607.19 240.66 611.1 245.46 612.56 248.5C613.89 251.25 615.31 254.97 615.73 256.77C616.16 258.57 616.73 260.03 617 260.01C617.27 259.98 619 253.79 620.84 246.23C622.68 238.68 626 227.55 628.21 221.5C630.43 215.45 634.49 206 637.24 200.5C639.98 195 643.92 188.03 645.98 185C648.04 181.97 650.91 177.14 652.36 174.25C653.81 171.36 655.67 166.19 656.49 162.75C657.3 159.31 657.98 153.01 657.99 148.75C657.99 144.49 657.29 137.51 656.43 133.25C655.57 128.99 653.32 121.9 651.44 117.5C649.56 113.1 648.01 109.16 648.01 108.75C648 108.34 651.94 109.09 656.75 110.41C661.56 111.74 667.98 113.79 671 114.96C674.02 116.13 680.41 118.99 685.2 121.3L693.89 125.5C700.18 119.69 702.26 118.11 702.58 118.25C702.89 118.39 702.63 120.97 702 124C701.37 127.03 701 129.54 701.17 129.58C701.35 129.63 705.1 132.1 709.5 135.08C713.9 138.06 722.34 145.34 728.25 151.25C738.96 161.96 739 161.99 739.5 159C739.77 157.35 740.34 155.98 740.75 155.95C741.16 155.93 743.36 158.29 745.64 161.2C747.91 164.12 750.66 168.3 751.75 170.5C752.84 172.7 754.3 176.3 755 178.5C755.71 180.7 756.63 185.88 757.06 190C757.48 194.13 759.02 201.32 760.47 206C761.93 210.68 763.62 218.1 764.23 222.5C764.85 226.9 765.69 230.95 766.1 231.5C766.51 232.05 767.8 230.25 768.97 227.5C770.14 224.75 772.87 219.46 775.05 215.75C777.22 212.04 779.34 209 779.75 209C780.16 209.01 782.58 211.59 785.12 214.75C787.67 217.91 791.77 223.65 794.25 227.5C796.72 231.35 800.33 237.65 802.26 241.5C804.19 245.35 807.19 252.55 808.93 257.5C810.67 262.45 812.96 270.77 814.03 276C815.09 281.23 816.25 290.23 816.6 296C816.97 302.12 816.76 310.46 816.08 316C815.45 321.23 814.08 329.1 813.03 333.5C811.99 337.9 810.77 342.38 810.32 343.45C809.58 345.2 809.8 345.32 812.5 344.66C814.15 344.25 818.31 342.59 821.75 340.96C825.19 339.33 828.9 336.88 830 335.5C831.1 334.13 832.23 333 832.5 333C832.77 333 832.28 335.36 831.41 338.25C830.53 341.14 828.03 347.32 825.84 352C823.66 356.68 820.22 363.2 818.2 366.5C816.19 369.8 811.35 376.32 807.45 381C803.55 385.68 798.14 391.72 795.43 394.43C792.72 397.14 787.8 401.35 784.5 403.79C781.2 406.23 775.13 409.91 771 411.98C766.88 414.05 760.67 416.81 757.22 418.12C753.76 419.43 750.95 420.61 750.97 420.75C750.98 420.89 753.14 420.75 755.75 420.44C758.36 420.13 765 418.39 770.5 416.56C776 414.74 784.33 411.34 789 409.01C793.67 406.68 800.65 402.69 804.5 400.14C808.35 397.6 814.82 392.36 818.88 388.51C822.94 384.65 830.34 376.77 835.32 371C840.31 365.23 847.04 356.45 850.29 351.5C853.55 346.55 858.37 338 861.01 332.5C863.65 327 867.19 318.68 868.86 314C870.54 309.32 871.59 305.17 871.21 304.77C870.82 304.37 869.04 305.38 867.25 307.02C865.46 308.66 861.41 311.3 858.25 312.89C855.09 314.48 850.48 316.3 848 316.93C845.52 317.56 843.41 317.95 843.31 317.79C843.2 317.63 844.2 313.23 845.53 308C846.87 302.77 848.61 294 849.42 288.5C850.22 283 851.18 274 851.54 268.5C851.9 263 851.69 253.1 851.08 246.5C850.47 239.9 849.03 229.78 847.87 224C846.71 218.22 844.21 208.78 842.32 203C840.43 197.22 836.06 186.65 832.62 179.5C829.18 172.35 824.66 163.8 822.58 160.5C820.49 157.2 816.03 150.8 812.65 146.27C809.27 141.74 806.16 138.03 805.75 138.02C805.34 138.01 805 139.69 805.01 141.75C805.01 143.81 804.3 148.2 803.44 151.5C802.58 154.8 800.32 160.43 798.42 164C796.52 167.57 793.06 173.06 790.73 176.18C788.41 179.3 786.38 181.78 786.22 181.68C786.07 181.58 785.5 176.1 784.96 169.5C784.43 162.9 783.05 152.55 781.92 146.5C780.78 140.45 778.25 130.55 776.3 124.5C774.35 118.45 770.76 109.22 768.32 104C765.87 98.78 762.24 91.8 760.25 88.5C758.26 85.2 754.23 79.24 751.31 75.25C748.39 71.26 742.51 64.33 738.25 59.84C733.99 55.36 726.67 48.49 722 44.58C717.33 40.67 709.45 34.8 704.5 31.54C699.55 28.28 690.55 23.08 684.5 19.99C678.45 16.89 668.77 12.53 663 10.29C657.23 8.05 648.23 5.05 643 3.61C637.77 2.18 633.16 1 632.75 1C632.34 1 632.01 1.34 632.01 1.75Z" /><path class="shp1" d="M647.91 108.82C647.97 109.19 649.56 113.1 651.44 117.5C653.32 121.9 655.57 128.99 656.43 133.25C657.29 137.51 657.99 144.49 657.99 148.75C657.98 153.01 657.3 159.31 656.49 162.75C655.67 166.19 653.81 171.36 652.36 174.25C650.91 177.14 648.04 181.97 645.98 185C643.92 188.03 639.98 195 637.24 200.5C634.49 206 630.43 215.45 628.21 221.5C626 227.55 622.68 238.68 620.84 246.23C619 253.79 617.27 259.98 617 260.01C616.73 260.03 616.16 258.57 615.73 256.77C615.31 254.97 613.89 251.25 612.56 248.5C611.1 245.46 607.19 240.66 602.58 236.25C598.41 232.26 594.55 229 594 229C593.45 229 593.28 229.79 593.62 230.75C593.96 231.71 594.69 234.53 595.23 237C595.92 240.15 595.86 243.3 595.02 247.5C594.37 250.8 592.56 256.2 591 259.5C589.44 262.8 586.03 268.43 583.41 272C580.79 275.57 577.38 281.2 575.82 284.5C574.26 287.8 572.23 294.32 571.31 299C569.87 306.29 569.8 308.64 570.84 315.5C571.51 319.9 573.17 326.2 574.53 329.5C575.9 332.8 578.47 337.93 580.26 340.89C582.04 343.86 587.1 349.98 591.5 354.5C595.9 359.02 601.08 363.88 603 365.3C604.92 366.73 606.27 368.12 606 368.39C605.73 368.67 602.35 367.38 598.5 365.52C594.65 363.67 588.24 359.42 584.25 356.08C580.26 352.74 577 350.45 577 351C577 351.55 579.62 355.49 582.83 359.75C586.03 364.01 591.09 370.15 594.08 373.39C597.06 376.63 602.88 382.08 607 385.51C611.13 388.93 618.33 394.22 623 397.27C627.67 400.31 633.17 403.63 635.2 404.65C637.24 405.67 638.59 406.95 638.21 407.5C637.8 408.1 638.02 408.2 638.76 407.75C639.44 407.34 640.67 407.23 641.5 407.5C642.33 407.77 642.77 408.45 642.5 409C642.23 409.55 645.82 411.24 650.49 412.75C655.16 414.26 659.33 415.17 659.74 414.77C660.16 414.38 658.97 413.25 657.1 412.27C655.23 411.3 652.31 409.28 650.6 407.79C648.9 406.3 646.94 405.06 646.25 405.04C645.56 405.02 641.71 401.74 637.7 397.75C633.68 393.76 628.42 387.57 626 384C623.59 380.43 619.93 373.9 617.87 369.5C615.81 365.1 612.96 357 611.54 351.5C610.11 346 608.55 336.77 608.06 331C607.58 325.23 607.55 316.68 608 312C608.45 307.32 609.37 301.25 610.05 298.5C610.73 295.75 612.5 290.8 613.97 287.5C615.44 284.2 619.6 277.23 623.21 272C626.81 266.77 631.45 259.13 633.51 255C635.56 250.88 638.74 243 640.56 237.5C642.38 232 644.57 224.01 645.43 219.75C646.29 215.49 647 210.88 647 209.5C647 208.13 647.34 206.79 647.75 206.54C648.16 206.28 649.45 207.29 650.6 208.79C651.76 210.28 653.89 213.86 655.35 216.75C656.81 219.64 658.42 224.81 658.92 228.25C659.45 231.78 659.49 237.11 659.02 240.5C658.57 243.8 657.25 248.86 656.1 251.75C654.94 254.64 654 258.8 654 261C654 263.2 654.6 266.46 655.32 268.25C656.05 270.04 657.96 272.52 659.57 273.77C661.18 275.02 664.98 276.52 668 277.11C671.02 277.69 675.08 277.91 677 277.59C678.92 277.27 682.08 275.97 684 274.71C685.92 273.44 688.55 270.85 689.84 268.95C691.97 265.82 692.15 264.68 691.76 256.5C691.46 250.26 690.51 245.12 688.66 239.75C687.2 235.49 683.69 226.94 680.88 220.75C678.06 214.56 674.68 205.22 673.36 200C671.59 192.97 670.97 187.77 670.97 180C670.98 173.03 671.61 166.98 672.87 162C673.91 157.88 676.22 151.57 678.01 148C679.8 144.43 682.66 139.47 684.36 137C686.06 134.53 688.9 130.93 690.69 129L693.92 125.5C680.42 118.99 674.02 116.13 671 114.96C667.98 113.79 661.52 111.78 656.66 110.49C651.79 109.2 647.86 108.45 647.91 108.82Z" /><path class="shp2" d="M696.05 123.63C692.59 126.86 687.85 132.2 685.5 135.5C683.15 138.8 679.78 144.43 678 148C676.22 151.57 673.91 157.88 672.87 162C671.61 166.98 670.98 173.03 670.97 180C670.97 187.77 671.59 192.97 673.36 200C674.68 205.22 678.11 214.68 681 221C683.88 227.32 687.42 236.22 688.87 240.77C690.66 246.39 691.82 248.69 692.5 247.97C693.19 247.24 695.15 248.87 698.8 253.2C701.72 256.67 705.87 263.1 708.02 267.5C710.17 271.9 712.92 279.55 714.13 284.5C715.94 291.84 716.34 296.36 716.33 309C716.32 319.09 715.74 327.64 714.66 333.5C713.75 338.45 711.92 346.55 710.58 351.5C709.24 356.45 707.78 361.34 707.33 362.37C706.59 364.03 706.82 364.15 709.5 363.49C711.15 363.08 714.69 361.57 717.37 360.12C720.47 358.45 723.1 356.04 724.61 353.5C725.91 351.3 727.32 347.8 727.74 345.73C728.16 343.66 728.73 341.96 729 341.95C729.27 341.94 730.93 344.99 732.68 348.72C734.43 352.45 736.62 358.43 737.54 362C738.71 366.53 739.09 371.07 738.79 377C738.42 384.24 737.8 386.69 734.59 393.5C731.67 399.67 729.18 403.1 723.65 408.51C719.72 412.36 713.7 417.09 710.28 419.01C706.86 420.93 704.05 422.84 704.03 423.25C704.01 423.66 705.58 424 707.5 424C709.42 424 715.84 422.86 721.75 421.47C728.22 419.95 736.08 417.2 741.5 414.56C746.45 412.15 753.42 407.96 757 405.24C760.58 402.53 766.16 397.43 769.4 393.9C772.65 390.38 777.12 384.8 779.35 381.5C781.57 378.2 785.31 371.45 787.66 366.5C790 361.55 792.88 353.9 794.04 349.5C795.51 343.96 796.19 338.27 796.26 331C796.32 324.08 795.78 318.37 794.67 314.25C793.75 310.81 791.7 305.41 790.11 302.25C788.53 299.09 785.36 290.65 783.08 283.5C780.8 276.35 778.04 265.55 776.96 259.5C775.7 252.49 775.01 244.33 775.05 237C775.09 229.72 775.74 223.03 776.81 218.77C777.74 215.06 778.27 212.02 778 212C777.73 211.99 776.04 214.34 774.26 217.24C772.47 220.13 769.91 225.2 768.56 228.5C767.22 231.8 765.41 237.2 764.55 240.5C763.63 244.05 763 250.59 763.01 256.5C763.03 263.17 763.69 269 765 274C766.08 278.13 766.96 284.65 766.96 288.5C766.96 293.08 766.33 296.88 765.16 299.5C764.17 301.7 762.04 304.53 760.43 305.79C758.82 307.05 755.92 308.57 754 309.18C752.08 309.78 747.58 310.07 744 309.82C739.93 309.53 735.65 308.45 732.56 306.93C729.43 305.39 726.68 303.06 725.06 300.57C722.84 297.17 722.5 295.56 722.51 288.57C722.52 283.64 723.19 278.55 724.23 275.5C725.16 272.75 728.92 266 732.58 260.5C736.23 255 741.65 245.66 744.61 239.75C747.58 233.84 751.08 225.74 752.39 221.75C753.71 217.76 755.34 211.57 756.02 208C756.7 204.43 757.2 198.13 757.12 194C757.05 189.88 756.32 183.91 755.5 180.75C754.67 177.59 753.05 173.09 751.89 170.75C750.72 168.41 747.91 164.12 745.64 161.2C743.36 158.29 741.16 155.93 740.75 155.95C740.34 155.98 739.49 158.59 738.88 161.75C738.26 164.91 736.76 169.75 735.53 172.5C734.31 175.25 732.01 179.02 730.41 180.88C728.81 182.74 726.15 184.95 724.5 185.78C722.85 186.61 719.25 187.33 716.5 187.37C713.24 187.42 710.28 186.76 708 185.46C705.56 184.08 703.6 181.66 701.54 177.49C699.01 172.36 698.53 170.07 698.17 161.5C697.94 156 698.28 147.45 698.93 142.5C699.58 137.55 700.74 130.19 701.51 126.15C702.27 122.1 702.77 118.56 702.62 118.28C702.46 118 699.51 120.41 696.05 123.63Z" /><path class="shp1" d="M700.53 131.34C700.17 132.08 699.4 137.14 698.8 142.59C698.21 148.04 697.92 156.78 698.16 162C698.53 169.96 699.08 172.47 701.55 177.49C703.61 181.66 705.56 184.08 708 185.46C710.28 186.76 713.24 187.42 716.5 187.37C719.25 187.33 722.85 186.61 724.5 185.78C726.15 184.95 728.81 182.74 730.41 180.88C732.01 179.02 734.3 175.25 735.51 172.5C736.72 169.75 737.99 166.26 738.35 164.75C738.94 162.27 737.95 160.95 728.25 151.25C722.34 145.34 714.01 138.14 709.75 135.25C705.49 132.36 701.81 130 701.58 130C701.36 130 700.88 130.6 700.53 131.34ZM756.2 206.25C755.59 210.24 753.95 216.99 752.55 221.25C751.15 225.51 747.58 233.84 744.61 239.75C741.65 245.66 736.23 255 732.58 260.5C728.92 266 725.16 272.75 724.23 275.5C723.19 278.55 722.52 283.64 722.51 288.57C722.5 295.56 722.84 297.17 725.06 300.57C726.68 303.06 729.43 305.39 732.56 306.93C735.65 308.45 739.93 309.53 744 309.82C747.58 310.07 752.08 309.78 754 309.18C755.92 308.57 758.82 307.05 760.43 305.79C762.04 304.53 764.17 301.7 765.16 299.5C766.3 296.95 766.96 293.05 766.98 288.75C766.99 285.04 766.06 278.29 764.9 273.75C763.16 266.9 762.88 263.47 763.27 253.5C763.57 245.83 764.32 239.97 765.37 237.25C766.27 234.91 766.66 232.44 766.25 231.75C765.84 231.06 765 227.13 764.39 223C763.78 218.88 762.39 211.79 761.31 207.25C760.23 202.71 758.89 199 758.33 199C757.77 199 756.81 202.26 756.2 206.25Z" /><path class="shp2" d="M647.58 206.62C647.08 207.01 646.74 208.38 646.83 209.67C646.92 210.95 646.29 215.49 645.43 219.75C644.57 224.01 642.38 232 640.56 237.5C638.74 243 635.56 250.88 633.51 255C631.45 259.13 626.81 266.77 623.21 272C619.6 277.23 615.44 284.2 613.97 287.5C612.5 290.8 610.73 295.75 610.05 298.5C609.37 301.25 608.45 307.32 608 312C607.55 316.68 607.58 325.23 608.06 331C608.55 336.77 610.11 346 611.54 351.5C612.96 357 615.81 365.1 617.87 369.5C619.92 373.9 623.13 379.75 624.99 382.5C626.85 385.25 630.2 389.67 632.44 392.33C634.67 394.98 638.64 398.92 641.25 401.08C643.86 403.23 646.23 404.77 646.5 404.5C646.77 404.23 645.91 402.31 644.57 400.25C643.24 398.19 641.36 393.8 640.39 390.5C639.16 386.25 638.64 380.85 638.61 372C638.58 360.92 638.88 358.62 641.29 351.75C642.78 347.49 645.62 341.41 647.61 338.25C649.59 335.09 652.4 331.21 653.86 329.63C655.31 328.05 659.65 324.05 663.5 320.74C667.35 317.43 672.42 312.42 674.76 309.61C677.1 306.8 680.55 301.57 682.43 298C684.32 294.43 687.02 287.45 688.45 282.5C689.87 277.55 691.01 272.38 690.98 271C690.91 268.53 690.87 268.54 687.21 272.13C685.01 274.29 681.67 276.27 679 277C675.58 277.94 673.07 277.97 668.5 277.13C665.2 276.52 661.38 275.2 660 274.19C658.63 273.18 656.71 270.81 655.75 268.93C654.79 267.04 654 263.59 654 261.25C654 258.91 654.94 254.64 656.1 251.75C657.25 248.86 658.57 243.8 659.02 240.5C659.49 237.11 659.45 231.78 658.92 228.25C658.42 224.81 656.67 219.41 655.04 216.25C653.41 213.09 651.27 209.47 650.29 208.2C649.3 206.94 648.09 206.23 647.58 206.62Z" /><path class="shp1" d="M778.87 209.25C778.8 209.39 778.62 210.4 778.47 211.5C778.32 212.6 777.48 216.43 776.61 220C775.67 223.88 775.02 230.94 775.01 237.5C775 244.15 775.77 252.85 776.96 259.5C778.04 265.55 780.8 276.35 783.08 283.5C785.36 290.65 788.53 299.09 790.11 302.25C791.7 305.41 793.75 310.81 794.67 314.25C795.78 318.37 796.32 324.08 796.26 331C796.19 338.27 795.51 343.96 794.04 349.5C792.88 353.9 790 361.55 787.66 366.5C785.31 371.45 781.57 378.2 779.35 381.5C777.12 384.8 772.65 390.38 769.4 393.9C766.16 397.43 760.58 402.53 757 405.24C753.42 407.96 746.45 412.15 741.5 414.56C736.55 416.98 728 420.04 722.5 421.38L712.5 423.81C728 423.95 736.55 423.5 741.5 422.89C746.45 422.29 750.79 421.28 751.14 420.65C751.57 419.86 752.21 419.82 753.13 420.5C754.11 421.23 754.28 421.16 753.74 420.25C753.24 419.41 753.9 418.81 755.75 418.43C757.26 418.12 762.77 415.84 768 413.36C773.23 410.88 780.2 406.92 783.5 404.55C786.8 402.18 791.95 397.83 794.94 394.87C797.93 391.92 803.57 385.68 807.46 381C811.35 376.32 816.19 369.8 818.2 366.5C820.22 363.2 823.66 356.68 825.84 352C828.03 347.32 830.53 341.14 831.41 338.25C832.28 335.36 832.77 333 832.5 333C832.23 333 831.1 334.13 830 335.5C828.9 336.88 825.19 339.33 821.75 340.96C818.31 342.59 814.15 344.25 812.5 344.66C809.8 345.32 809.58 345.2 810.32 343.45C810.77 342.38 811.99 337.9 813.03 333.5C814.08 329.1 815.45 321.23 816.08 316C816.76 310.46 816.97 302.12 816.6 296C816.25 290.23 815.09 281.23 814.03 276C812.96 270.77 810.67 262.45 808.93 257.5C807.19 252.55 804.19 245.35 802.26 241.5C800.33 237.65 796.72 231.35 794.25 227.5C791.77 223.65 787.67 217.91 785.12 214.75C782.58 211.59 780.16 209.01 779.75 209C779.34 209 778.94 209.11 778.87 209.25Z" /><path class="shp3" d="M692.66 248C692.39 248.82 691.92 254.9 691.61 261.5C691.22 270.14 690.33 276.02 688.46 282.5C687.03 287.45 684.32 294.43 682.43 298C680.55 301.57 677.1 306.8 674.76 309.61C672.42 312.42 667.35 317.43 663.5 320.74C659.65 324.05 655.31 328.05 653.86 329.63C652.4 331.21 649.59 335.09 647.61 338.25C645.62 341.41 642.78 347.49 641.29 351.75C638.88 358.61 638.57 360.94 638.59 372C638.61 382.02 639.05 385.89 640.81 391.5C642.01 395.35 644.57 400.64 646.5 403.25C648.42 405.86 651.41 408.79 653.13 409.75C654.85 410.71 657.43 412.46 658.88 413.64C660.32 414.81 666 417.16 671.5 418.86C677 420.55 684.42 422.4 688 422.96C691.58 423.52 696.41 423.99 698.75 423.99C701.09 424 703.56 423.55 704.25 422.99C704.94 422.43 708.88 419.81 713 417.17C717.13 414.52 722.94 409.68 725.91 406.43C729.05 403 732.81 397.34 734.84 393C737.78 386.74 738.43 384.1 738.79 377C739.09 371.07 738.71 366.53 737.54 362C736.62 358.43 734.43 352.45 732.68 348.72C730.93 344.99 729.27 341.94 729 341.95C728.73 341.96 728.16 343.66 727.74 345.73C727.32 347.8 725.91 351.3 724.61 353.5C723.1 356.04 720.47 358.45 717.37 360.12C714.69 361.57 711.15 363.08 709.5 363.49C706.82 364.15 706.59 364.03 707.33 362.37C707.78 361.34 709.24 356.45 710.58 351.5C711.92 346.55 713.75 338.45 714.66 333.5C715.74 327.64 716.32 319.09 716.33 309C716.34 296.41 715.94 291.85 714.17 284.75C712.98 279.94 710.74 273.19 709.2 269.75C707.65 266.31 704.98 261.48 703.24 259C701.51 256.52 698.53 252.7 696.63 250.5C694.08 247.57 693.03 246.9 692.66 248Z" /><path class="shp4" d="M986.5 298.36C984.3 299.03 980.25 300.89 977.5 302.48C974.75 304.07 970.07 307.65 967.09 310.43C964.12 313.22 959 319.1 955.72 323.5C952.44 327.9 946.72 336.68 943.01 343C939.29 349.32 931.97 362.6 926.75 372.5C921.52 382.4 914.66 395 911.51 400.5C908.36 406 902.34 416.04 898.14 422.81C893.94 429.58 884.5 443.3 877.16 453.31C865.2 469.61 863.93 471.73 864.91 473.75C865.51 474.99 866.56 475.85 867.25 475.66C867.94 475.47 873.59 468.38 879.82 459.91C886.04 451.43 894.64 438.88 898.92 432C903.21 425.13 909.31 415 912.48 409.5C915.64 404 922.29 391.85 927.24 382.5C932.2 373.15 938.52 361.45 941.3 356.5C944.07 351.55 949.38 343 953.1 337.5C956.82 332 962.78 324.57 966.34 321C969.91 317.43 975.23 313.06 978.16 311.29C981.1 309.53 986.2 307.39 989.5 306.54C992.8 305.69 998.09 304.99 1001.25 304.99C1004.41 305 1009.36 305.54 1012.25 306.19C1015.14 306.84 1018.81 308.53 1020.42 309.94C1022.03 311.35 1024.18 314.3 1025.2 316.5L1027.06 320.5C1026.04 312.75 1024.94 308.93 1023.98 307C1023.01 305.07 1021.38 302.74 1020.36 301.8C1019.34 300.87 1016.48 299.4 1014 298.53C1011.03 297.49 1006.28 296.99 1000 297.05C994.77 297.09 988.7 297.69 986.5 298.36ZM936.92 306.69C934.6 308.79 931.04 312.75 929.02 315.5C926.99 318.25 922.83 324.77 919.77 330C916.71 335.23 908.8 350.52 902.2 364C893.49 381.79 887.44 392.61 880.1 403.5C874.54 411.75 865.72 423.9 860.49 430.5C855.26 437.1 849.65 444.98 848.03 448C846.29 451.22 845.05 455.05 845.03 457.25C845.01 459.31 845.45 461 846 461C846.55 461 847.73 459.54 848.63 457.75C849.52 455.96 852.31 451.57 854.84 448C857.36 444.43 863.01 437 867.39 431.5C871.77 426 878.91 416.1 883.26 409.5C887.82 402.57 896.79 386.09 904.49 370.5C911.83 355.65 920.18 339.68 923.04 335C925.9 330.32 930.13 324.02 932.45 321C934.76 317.98 938.19 314.5 940.07 313.28C941.96 312.06 944.74 311.05 946.25 311.03C948.8 311 948.98 310.73 948.75 307.25C948.51 303.7 948.3 303.48 944.82 303.19C941.73 302.94 940.45 303.51 936.92 306.69Z" /><path fill-rule="evenodd" class="shp5" d="M1000.75 305.07C1004.19 305.03 1009.36 305.51 1012.25 306.14C1016.04 306.95 1018.51 308.28 1021.13 310.89C1023.12 312.87 1025.26 316.3 1025.87 318.5C1026.49 320.7 1026.99 325.31 1026.99 328.75C1027 332.19 1026.1 339.5 1025 345C1023.9 350.5 1021.27 359.84 1019.15 365.75C1017.04 371.66 1013.16 381.45 1010.53 387.5C1007.9 393.55 1003.05 403.9 999.75 410.5C996.44 417.1 990.36 428.57 986.22 436C982.08 443.43 974.65 456.02 969.72 464C964.79 471.98 956.91 484.13 952.21 491C947.51 497.88 939.62 508.9 934.69 515.5C929.75 522.1 921.55 532.45 916.45 538.5C911.35 544.55 902.08 554.49 895.84 560.59C889.6 566.69 880.9 574.52 876.5 577.99C872.1 581.46 863.33 587.75 857 591.98C850.67 596.2 842.35 601.49 838.5 603.73C834.65 605.97 826.33 610.59 820 614.01C813.67 617.43 802.42 623.04 795 626.49C787.58 629.93 773.63 635.9 764 639.75C754.38 643.6 737.95 649.55 727.5 652.96C717.05 656.36 699.95 661.34 689.5 664C679.05 666.67 663.52 669.99 655 671.4C646.48 672.8 632.75 674.47 624.5 675.12C615.26 675.84 601.24 676.05 588 675.67C576.17 675.33 559.98 674.36 552 673.5C544.02 672.65 532.33 671.26 526 670.42C519.67 669.57 507.52 667.76 499 666.4C490.48 665.04 478.1 662.81 471.5 661.45C464.9 660.08 455.23 657.83 450 656.43C444.77 655.04 434.2 651.84 426.5 649.33C418.8 646.81 407.55 642.84 401.5 640.51C395.45 638.18 378.13 631.07 363 624.71C347.88 618.35 328.75 610.62 320.5 607.53C312.25 604.43 296.5 598.98 285.5 595.41C274.5 591.84 256.73 586.74 246 584.07C235.28 581.4 219.97 578.04 212 576.6C204.03 575.17 191.65 573.32 184.5 572.49C177.35 571.66 163.63 570.7 154 570.36C143.3 569.98 130.86 570.2 122 570.94C114.03 571.6 102.33 573.01 96 574.08C89.67 575.15 80.22 577.13 75 578.48C69.78 579.83 59.42 582.98 52 585.48C44.58 587.97 37.71 590.01 36.75 590.01C35.79 590 35 589.77 35 589.5C35 589.23 37.22 581.91 39.94 573.25C42.66 564.59 47.12 551.65 49.86 544.5C52.6 537.35 56.48 527.67 58.5 523C60.51 518.33 65.42 507.98 69.42 500C73.41 492.02 79.52 480.77 82.99 475C86.46 469.23 92.49 459.77 96.4 454C100.3 448.23 107.96 437.88 113.4 431C118.85 424.13 131.45 410.37 141.4 400.43C151.36 390.5 164.22 378.63 170 374.07C175.78 369.5 184.78 362.94 190 359.47C195.22 356.01 203.55 350.99 208.5 348.32C213.45 345.65 221.32 341.73 226 339.6C230.68 337.47 240.46 333.77 247.75 331.36C255.04 328.96 266.51 325.89 273.25 324.54C279.99 323.18 289.77 321.51 295 320.82C300.37 320.11 315.37 319.56 329.5 319.54C344.55 319.52 358.08 320.02 363.5 320.78C368.45 321.49 377.23 322.99 383 324.13C388.77 325.27 398.68 327.77 405 329.69C411.32 331.6 421.68 335.21 428 337.72C434.32 340.22 445.35 344.95 452.5 348.22C459.65 351.5 473.15 358.25 482.5 363.23C491.85 368.21 512.55 379.71 528.5 388.78C544.45 397.85 567.17 410.54 579 416.98C590.83 423.43 608.83 433.02 619 438.29C629.17 443.57 643.8 450.78 651.5 454.31C659.2 457.84 668.88 461.95 673 463.44C677.13 464.93 684.55 467 689.5 468.03C694.45 469.05 705.02 470.37 713 470.94C720.98 471.51 738.08 472.45 751 473.01C763.92 473.58 783.05 474.72 793.5 475.54C803.95 476.36 817.9 477.9 824.5 478.97C831.1 480.04 839.65 481.88 843.5 483.07C847.35 484.26 852.75 486.36 855.5 487.75C858.25 489.13 862.3 491.51 864.5 493.03C866.7 494.55 870.23 497.52 872.35 499.64C874.46 501.76 877.05 505.19 878.1 507.25C879.14 509.31 880 512.13 880 513.5C880 514.88 879.13 518.36 878.06 521.25C876.76 524.75 873.85 528.96 869.31 533.89C865.23 538.32 858.89 543.64 853.5 547.17C848.55 550.41 841.35 554.37 837.5 555.97C833.65 557.57 825.33 560.22 819 561.87C812.67 563.51 801.2 565.77 793.5 566.88C785.8 568 773.42 569.38 766 569.96C758.58 570.53 739.56 571 723.75 571C707.94 571 688.14 570.54 679.75 569.97C671.36 569.4 658.2 568.26 650.5 567.44C642.8 566.62 631.77 565.26 626 564.41C620.23 563.56 604.25 560.64 590.5 557.92C576.75 555.21 559.42 552.06 552 550.94C544.58 549.82 533.1 548.65 526.5 548.33C518.06 547.93 514.8 548.07 515.5 548.82C516.05 549.4 521.45 551.26 527.5 552.96C533.55 554.65 551.55 558.94 567.5 562.49C583.45 566.03 605.05 570.49 615.5 572.4C625.95 574.3 641.02 576.78 649 577.91C656.98 579.05 670.02 580.66 678 581.51C685.98 582.36 703.08 583.33 716 583.67C730.71 584.06 744.92 583.85 754 583.12C761.98 582.48 773.9 581.05 780.5 579.94C787.1 578.83 796.1 577.01 800.5 575.88C804.9 574.76 815.02 571.69 823 569.06C830.98 566.43 841.33 562.54 846 560.41C850.67 558.29 857.42 554.86 861 552.81C864.58 550.75 870.09 547.02 873.25 544.53C876.41 542.04 880.56 537.86 882.48 535.25C884.39 532.64 886.7 528.25 887.61 525.5C888.78 521.99 889.14 518.42 888.81 513.5C888.51 508.97 887.47 504.56 885.84 501C884.46 497.98 880.44 491.97 876.91 487.66C873.39 483.35 869.94 478.96 869.25 477.91C868.14 476.22 869.34 474.17 879.9 459.75C886.45 450.81 895.16 438.1 899.26 431.5C903.36 424.9 909.31 415 912.48 409.5C915.64 404 922.29 391.85 927.24 382.5C932.2 373.15 938.52 361.45 941.3 356.5C944.07 351.55 949.38 343 953.1 337.5C956.82 332 962.78 324.57 966.34 321C969.91 317.43 975.23 313.05 978.16 311.29C981.1 309.52 985.98 307.41 989 306.6C992.02 305.79 997.31 305.1 1000.75 305.07ZM945.75 311C946.99 311 948.01 311.34 948.03 311.75C948.04 312.16 943.57 321.5 938.09 332.5C932.6 343.5 924.23 359.7 919.47 368.5C914.72 377.3 907.42 390.13 903.27 397C899.11 403.88 892.34 414.45 888.22 420.5C884.1 426.55 877.68 435.32 873.94 440C870.21 444.68 864.76 450.8 861.83 453.6C858.9 456.41 855.38 459.45 854 460.36C852.63 461.27 850.49 462.01 849.25 462.01C848.01 462 847 461.77 847 461.5C847 461.23 847.73 459.54 848.63 457.75C849.52 455.96 852.31 451.57 854.84 448C857.36 444.43 863.01 437 867.39 431.5C871.77 426 878.91 416.1 883.26 409.5C887.82 402.57 896.79 386.09 904.49 370.5C911.83 355.65 920.03 339.9 922.71 335.5C925.39 331.1 929.59 324.87 932.03 321.66C934.47 318.44 938.05 314.73 939.98 313.4C941.92 312.08 944.51 310.99 945.75 311Z" /><path class="shp4" d="M346.5 317.1C339.35 317.57 332.82 318.09 332 318.27C331.18 318.45 336.46 318.91 343.75 319.3C351.04 319.68 360.49 320.47 364.75 321.04C369.01 321.61 377.23 323.01 383 324.14C388.77 325.28 398.68 327.77 405 329.69C411.32 331.6 421.68 335.21 428 337.72C434.32 340.22 445.35 344.95 452.5 348.22C459.65 351.5 473.15 358.25 482.5 363.23C491.85 368.21 512.55 379.71 528.5 388.78C544.45 397.85 567.17 410.54 579 416.98C590.83 423.43 608.83 433.02 619 438.29C629.17 443.57 643.8 450.78 651.5 454.31C659.2 457.84 668.88 461.95 673 463.44C677.13 464.93 684.55 467 689.5 468.03C694.45 469.05 705.02 470.37 713 470.94C720.98 471.51 738.08 472.45 751 473.01C763.92 473.58 783.05 474.72 793.5 475.54C803.95 476.36 817.9 477.9 824.5 478.97C831.1 480.04 839.65 481.88 843.5 483.07C847.35 484.26 852.75 486.36 855.5 487.75C858.25 489.13 862.3 491.5 864.5 493.01C866.7 494.52 870.3 497.61 872.5 499.88C874.7 502.15 877.54 505.92 878.8 508.26L881.1 512.5C880.1 505.52 878.78 501.48 877.53 499C876.28 496.52 872.82 492.25 869.85 489.5C866.87 486.75 860.85 482.62 856.47 480.32C852.08 478.02 845.13 475.23 841 474.11C836.88 473 829.45 471.42 824.5 470.6C819.55 469.79 810.55 468.65 804.5 468.07C798.45 467.49 786.3 466.57 777.5 466.02C768.7 465.47 751.15 464.57 738.5 464.01C725.85 463.45 712.58 462.73 709 462.42C705.42 462.1 698.45 461.23 693.5 460.47C688.55 459.72 680.45 457.75 675.5 456.1C670.55 454.46 659.98 450.13 652 446.5C644.02 442.87 629.17 435.58 619 430.3C608.83 425.03 590.6 415.31 578.5 408.7C566.4 402.1 543.67 389.4 528 380.48C512.33 371.56 492.98 360.75 485 356.45C477.02 352.16 464.88 345.98 458 342.72C451.13 339.47 441.23 335.01 436 332.82C430.77 330.63 423.13 327.6 419 326.07C414.88 324.55 407.23 322.07 402 320.56C396.15 318.87 389.24 317.67 384 317.43C379.32 317.22 371.9 316.87 367.5 316.65C363.1 316.44 353.65 316.64 346.5 317.1ZM889.82 339.88C888 342.01 884.92 346.53 883 349.92C881.08 353.31 876.12 361.8 871.99 368.79C867.86 375.78 861.13 386 857.04 391.5C852.94 397 844.84 406.24 839.04 412.03C833.24 417.82 824.05 425.7 818.6 429.53C813.16 433.36 806.76 438.3 804.38 440.5C802 442.7 800.04 445.29 800.02 446.25C800.01 447.21 800.9 448.45 802 449C803.64 449.82 804.86 449.31 808.75 446.19C811.36 444.09 817.33 439.63 822 436.27C826.67 432.91 833.16 427.76 836.41 424.83C839.67 421.9 845.89 415.23 850.24 410C854.59 404.77 861.21 396 864.95 390.5C868.7 385 875.02 374.65 879 367.5C882.99 360.35 887.88 352.35 889.87 349.72C891.87 347.1 894.29 344.74 895.25 344.47C896.21 344.21 897.7 344.56 898.54 345.25C899.89 346.34 900.09 345.98 900.06 342.5C900.05 340.3 899.46 337.93 898.77 337.23C898.07 336.54 896.52 335.97 895.32 335.98C894.04 335.99 891.77 337.6 889.82 339.88Z" /><path class="shp5" d="M893.25 345.75C892.28 346.71 890.31 349.07 888.86 351C887.42 352.93 882.98 360.35 879 367.5C875.02 374.65 868.7 385 864.95 390.5C861.21 396 854.59 404.77 850.24 410C845.89 415.23 839.67 421.9 836.41 424.84C833.16 427.78 826.23 433.27 821 437.03C815.77 440.8 809.92 445.21 808 446.84L804.5 449.8C810.7 450.94 814.98 450.99 818 450.65C821.02 450.31 826.2 448.75 829.5 447.17C832.8 445.6 838.88 441.64 843 438.36C847.13 435.08 854.25 427.92 858.84 422.45C863.43 416.98 870.21 408 873.9 402.5C877.59 397 882.82 388.45 885.51 383.5C888.21 378.55 891.93 370.9 893.78 366.5C895.63 362.1 897.85 355.82 898.72 352.55C900.06 347.46 900.09 346.41 898.9 345.26C898.13 344.52 896.94 343.93 896.25 343.96C895.56 343.98 894.21 344.79 893.25 345.75Z" /><path class="shp4" d="M778.5 428.08C775.2 429.18 766.54 432.99 759.25 436.54C748.12 441.97 746 443.36 745.98 445.25C745.97 446.49 746.54 448.26 747.23 449.18C748.39 450.72 749.55 450.35 760.5 444.92C767.1 441.65 776.1 437.81 780.5 436.37C784.9 434.94 789.4 433.99 790.5 434.26C791.6 434.52 793.29 435.03 794.25 435.37C795.68 435.89 796.01 435.41 796.03 432.75C796.05 430.91 795.29 428.75 794.28 427.78C793.19 426.72 790.94 426.05 788.5 426.06C786.3 426.06 781.8 426.97 778.5 428.08Z" /><path class="shp5" d="M779.5 436.6C775.65 437.95 767.55 441.42 761.5 444.31C755.45 447.21 750.16 450.12 749.75 450.79C749.29 451.53 749.87 452.46 751.25 453.2C752.51 453.88 756.8 454.34 761 454.27C765.48 454.19 771.32 453.26 775.5 451.97C779.35 450.79 784.52 448.55 787 446.99C789.48 445.44 792.4 442.52 793.5 440.51L795.5 436.86C792.4 434.62 790.38 434.01 789 434.06C787.63 434.11 783.35 435.25 779.5 436.6Z" /><path class="shp3" d="M109.55 663C109.25 663.55 109.56 664.45 110.25 665.01C111.02 665.63 121.42 666 137.5 665.96C153.36 665.93 164.57 666.31 166.25 666.95C168.05 667.64 169 667.65 169 667C169 666.45 169.68 666 170.5 666C171.32 666 172 665.33 172 664.5C172 663.67 171.44 662.73 170.75 662.39C170.06 662.06 169.07 662.29 168.55 662.89C167.9 663.65 159.14 664 140.8 664C123.6 664 114 663.64 114 663C114 662.45 113.12 662 112.05 662C110.98 662 109.85 662.45 109.55 663ZM249.67 662.5C249.3 662.77 249.49 663.79 250.08 664.75C251.08 666.35 253.23 666.48 275.83 666.2C289.4 666.04 301.63 666.2 303 666.56C304.38 666.92 308.2 669.82 311.5 672.99C316.82 678.11 317.79 678.67 320 677.86C322.48 676.95 322.46 676.91 316.5 671.02C313.2 667.76 310.16 665.29 309.75 665.54C309.34 665.79 308.77 665.55 308.5 665C308.19 664.37 298 664 281 664C263.67 664 254 663.64 254 663C254 662.45 253.18 662 252.17 662C251.16 662 250.03 662.23 249.67 662.5ZM330.67 662.5C330.3 662.77 330.56 663.84 331.25 664.87C332.26 666.38 333.37 666.65 337 666.24C340.14 665.9 342.56 666.29 345 667.52C346.93 668.5 352.32 671.86 357 674.99C361.68 678.12 367.07 680.94 369 681.25C371.08 681.58 373.52 681.27 375 680.47C376.38 679.74 377.54 678.54 377.6 677.82C377.66 676.98 376.92 676.67 375.6 676.96C373.95 677.32 373.71 677.12 374.5 676.01C375.17 675.07 375.17 674.76 374.5 675.08C373.95 675.35 372.38 676.17 371 676.91C368.65 678.18 367.83 677.83 357.5 671.15C347.14 664.46 346.16 664.04 340.75 664.02C337.59 664.01 335 663.55 335 663C335 662.45 334.18 662 333.17 662C332.16 662 331.03 662.23 330.67 662.5ZM393.04 663.22C391.69 663.82 390.67 664.57 390.78 664.9C390.88 665.23 391.54 666.32 392.23 667.33C393.46 669.1 393.62 669.1 397.31 667.33C400.45 665.82 401.76 665.69 404.81 666.57C407.68 667.41 408.78 667.35 409.75 666.32C410.44 665.6 411 664.33 411 663.5C411 662.67 410.55 662 410 662C409.45 662 408.77 662.45 408.5 663C408.23 663.55 406.13 664 403.85 664C401.56 664 399.54 663.55 399.35 663C399.16 662.45 398.21 662.03 397.25 662.07C396.29 662.1 394.39 662.62 393.04 663.22ZM180 664.49C181.25 665.75 186.05 666.05 209 666.29C224.13 666.45 237.51 666.9 238.75 667.29C240.31 667.78 241.23 667.53 241.75 666.46C242.16 665.62 242.05 664.46 241.5 663.88C240.8 663.15 239.79 663.16 238.15 663.92C236.6 664.63 235.66 664.66 235.4 664C235.15 663.37 224.69 663 206.75 662.99C181.54 662.98 178.66 663.14 180 664.49Z" /><path fill-rule="evenodd" class="shp5" d="M109.48 664.88C110.19 665.67 118.77 666.01 137.75 666.01C160.65 666 165.24 666.24 166.5 667.5C167.32 668.33 168.02 670.24 168.04 671.75C168.05 673.26 168.71 675.63 169.5 677C170.29 678.38 170.95 680.85 171.04 685.5L168.27 682.77C165.77 680.3 164.79 680.03 158.25 680.02C154.07 680.01 151 680.42 151 681C151 681.55 150.32 681.77 149.5 681.5C148.21 681.07 147.99 683.37 147.96 698.25C147.92 712.76 148.16 715.74 149.5 717C150.37 717.83 151.07 719.29 151.04 720.25C151 721.81 149.77 722 128 722L128 680L121 680C115 680 113.57 680.36 108 685L108.23 674.38C108.39 667.09 108.78 664.11 109.48 664.88ZM179.48 664.88C180.19 665.67 188.7 666.01 207.5 666.01C222.35 666 235 666.34 235.61 666.75C236.22 667.16 237.69 669.75 238.88 672.5C240.07 675.25 241.05 678.63 241.04 682.5L238.27 679.77C235.59 677.12 235.15 677.04 224.25 677.02C213.24 677 213 677.05 213.03 679.25C213.05 680.55 214.75 683.09 217.03 685.25C219.44 687.53 221.98 689 223.5 689C224.88 689 225.98 689.34 225.96 689.75C225.94 690.16 224.27 692.3 222.26 694.5C220.24 696.7 217.45 698.73 216.05 699.01C214.34 699.35 213.42 700.25 213.25 701.76C213.01 703.92 213.3 704 221.25 704.01C225.79 704.02 231.07 704.29 233 704.62C235.5 705.05 237.14 706.19 238.75 708.61C239.99 710.48 241 712.67 241 713.5C241 714.8 236.83 715 178 715L178.25 712.29C178.45 710.06 179.13 709.44 182 708.85C184.58 708.32 187.41 706.13 192.75 700.56C198.4 694.67 199.78 692.67 199 691.5C198.45 690.67 198.2 689.66 198.45 689.25C198.7 688.84 194.2 683.77 188.44 678C181.63 671.16 178.07 666.85 178.23 665.63C178.4 664.28 178.75 664.07 179.48 664.88ZM249.48 664.91C250.2 665.72 258.24 666.05 303.5 665.98L318.95 681.5L318.98 695.25C319 706.12 319.31 709.31 320.5 710.5C321.32 711.33 322 712.67 322 713.5C322 714.76 319.78 715 308 715C300.3 715 293.99 714.66 293.97 714.25C293.96 713.84 295.1 712.38 296.5 711C298.78 708.77 299.05 707.72 299 694L285 694C276.33 694 271 694.38 271 695C271 695.55 270.32 696 269.5 696C268.34 696 267.94 697.53 267.75 702.75C267.56 707.77 267.88 709.81 269 710.72C269.82 711.39 270.95 711.81 271.5 711.64C272.05 711.48 273.29 712.17 274.25 713.17C275.94 714.94 275.53 715 248 715L248.23 689.38C248.39 671.9 248.79 664.12 249.48 664.91ZM271.09 681C271.51 681.83 272.11 683.29 272.43 684.25C272.92 685.76 274.36 686 283 686C288.67 686 293.22 685.57 293.5 685C293.77 684.45 295.13 684 296.5 684C298.69 684 299 683.57 299 680.5L299 677C274.8 677 271.03 677.33 270.72 678.25C270.5 678.94 270.66 680.17 271.09 681ZM330.89 665.13C331.82 666.03 334.04 666.39 337.4 666.16C342.28 665.84 342.98 666.15 353.5 673.08C359.88 677.29 366.18 680.66 368.5 681.12C372.24 681.85 373.18 681.49 383 675.57C388.77 672.09 394.96 668.51 396.75 667.62C398.54 666.73 401.13 666 402.5 666C403.88 666 405.68 666.67 406.5 667.5C407.73 668.73 408 672.56 408 689C408 705.44 408.27 709.27 409.5 710.5C410.32 711.33 411 712.67 411 713.5C411 714.76 408.83 715 397.5 715C390.07 715 383.98 714.66 383.97 714.25C383.95 713.84 384.85 712.26 385.97 710.75C387.74 708.35 387.97 706.73 387.5 688.08L378.5 693.61C373.55 696.66 368.94 698.89 368.25 698.58C367.56 698.26 363.63 695.75 359.5 693C353 688.67 352 688.27 352 690C352 691.33 351.5 691.83 350.5 691.5C349.26 691.09 348.95 692.5 348.69 699.75C348.52 704.56 348.52 709.06 348.69 709.75C348.86 710.44 350.13 711.23 351.5 711.5C352.88 711.77 354 712.67 354 713.5C354 714.75 351.94 715 329 715L329.23 689.38C329.43 667.25 329.66 663.94 330.89 665.13Z" /><path class="shp4" d="M382.63 669.92C378.43 672.44 374.72 675.17 374.4 676C373.94 677.16 374.28 677.33 375.9 676.75C377.2 676.29 377.81 676.38 377.5 677C377.23 677.55 377.23 678 377.5 678C377.77 678 381.04 676.24 384.75 674.09C388.46 671.94 392.18 669.38 393 668.4C394.29 666.86 394.3 666.74 393.02 667.56C391.91 668.27 391.69 668.13 392.14 667C392.48 666.16 392.2 665.46 391.51 665.42C390.83 665.37 386.83 667.4 382.63 669.92ZM168.58 667.5C168.26 668.33 168.01 670.24 168.02 671.75C168.02 673.26 168.47 675.17 169 676C169.71 677.1 169.97 676.36 169.98 673.25C169.99 670.91 170.45 668.77 171 668.5C171.55 668.23 172 667.55 172 667C172 666.45 171.36 666 170.58 666C169.81 666 168.91 666.67 168.58 667.5ZM408.48 668.25C408.18 669.49 408.07 679.27 408.24 690L408.55 709.5C408.92 676.57 409.37 669 410 669C410.55 669 411 668.33 411 667.5C411 666.67 410.56 666 410.02 666C409.47 666 408.78 667.01 408.48 668.25Z" /><path class="shp3" d="M213.86 678.55C212.68 679.89 213.1 680.69 217 684.56C219.68 687.22 222.41 689.02 223.75 689.01C224.99 689.01 226.19 688.66 226.43 688.25C226.67 687.84 224.64 685.14 221.93 682.25C219.22 679.36 216.6 677 216.11 677C215.62 677 214.61 677.7 213.86 678.55Z" /><path class="shp4" d="M319.64 677.74C318.29 677.99 318.14 679.7 318.56 690.26C318.83 696.99 319.18 704.08 319.35 706C319.52 707.92 319.74 703.09 319.83 695.25C319.94 685.75 320.37 680.92 321.11 680.75C321.72 680.61 321.99 679.81 321.72 678.97C321.44 678.13 320.51 677.57 319.64 677.74Z" /><path class="shp3" d="M269.25 682.75C268.01 682.89 266.98 683.34 266.96 683.75C266.93 684.16 267.49 685.03 268.21 685.68C268.99 686.4 274.41 687.04 282 687.31C288.88 687.56 295.63 687.93 297 688.13C298.98 688.42 299.55 688.03 299.75 686.25C299.96 684.36 299.52 684 297 684C295.35 684 293.77 684.45 293.5 685C293.22 685.57 288.67 686 283 686C274.43 686 272.89 685.75 272.25 684.25C271.8 683.19 270.61 682.6 269.25 682.75Z" /><path class="shp4" d="M148.1 699.44C148.04 709.58 148.39 716.19 149 716.5C149.64 716.82 150.04 711.15 150.1 700.56C150.16 690.56 149.81 683.88 149.2 683.5C148.55 683.1 148.17 688.68 148.1 699.44ZM188.62 700.5C184.43 705.17 181.56 709 182.25 709.01C182.94 709.01 186.98 705.52 191.24 701.26C195.5 696.99 198.99 693.16 198.99 692.75C199 692.34 198.38 692 197.62 692C196.86 692 192.81 695.83 188.62 700.5ZM348.93 700C348.62 704.67 348.51 709.06 348.68 709.75C348.86 710.44 350.01 711.25 351.25 711.57C352.49 711.88 353.73 711.85 354 711.52C354.27 711.18 353.38 710.65 352 710.33C350.04 709.89 349.82 709.59 351 708.94C352.24 708.27 352.29 707.73 351.27 705.81C350.59 704.54 349.91 700.8 349.76 697.5C349.51 691.85 349.46 691.99 348.93 700Z" /><path class="shp0" d="M191.47 701.25L184.5 708.5C195.75 697.65 199.01 694.39 199.01 694.25C199 694.11 198.88 694 198.72 694C198.57 694 195.31 697.26 191.47 701.25Z" /><path class="shp4" d="M268.1 701.94C268.05 704.72 267.66 707.68 267.25 708.52C266.64 709.75 266.95 709.89 268.88 709.27C270.19 708.85 271.47 708.05 271.74 707.5C272 706.95 271.71 706.05 271.09 705.5C270.47 704.95 270.02 703.06 270.09 701.31C270.15 699.55 269.75 697.84 269.2 697.5C268.59 697.12 268.16 698.85 268.1 701.94Z" /><path class="shp3" d="M236.5 699.55C235.4 700.37 232.81 701.03 230.75 701.02C228.69 701.01 226.67 701.45 226.26 702C225.85 702.55 223.94 703.02 222.01 703.05C219.6 703.08 218.03 702.45 217 701.05C216.03 699.73 215.09 699.33 214.35 699.91C213.72 700.4 213.33 701.41 213.47 702.15C213.67 703.15 216.81 703.66 225.62 704.12C233.59 704.54 238.25 704.38 239.78 703.62C241.03 703.01 242.04 702.16 242.03 701.75C242.01 701.34 241.78 700.33 241.5 699.5C241.22 698.67 240.44 698.01 239.75 698.03C239.06 698.05 237.6 698.73 236.5 699.55ZM2 734C2 734.55 2.56 735.29 3.25 735.65C3.94 736 19.46 736.23 37.75 736.15C64.62 736.03 71.53 736.27 73.75 737.41C75.26 738.19 80.78 743.22 86 748.6C91.22 753.98 96.29 758.52 97.25 758.69C98.22 758.86 99.28 758.22 99.62 757.25C100.08 755.95 97.63 752.91 90.15 745.5C81.37 736.81 79.55 735.46 76.27 735.2C74.2 735.04 72.05 734.47 71.5 733.93C70.89 733.35 56.99 732.97 36.25 732.98C14.09 732.99 2 733.35 2 734ZM110 734C110 734.55 110.56 735.29 111.25 735.64C111.94 736 128.59 736.22 148.25 736.14C176.96 736.03 184.54 736.27 186.75 737.39C188.26 738.15 192.65 742.09 196.51 746.14C200.6 750.43 204.34 753.5 205.49 753.5C206.58 753.5 207.6 752.83 207.76 752C207.92 751.17 204.78 747.21 200.78 743.2C194.28 736.68 192.98 735.82 188.64 735.2C185.96 734.81 183.6 734.16 183.39 733.75C183.17 733.34 166.57 733 146.5 733C122.83 733 110 733.35 110 734ZM218.55 734C218.25 734.55 218.56 735.43 219.25 735.95C219.97 736.49 236.75 737.02 258.72 737.2L296.94 737.5C306.67 746.92 310.06 749.5 310.75 749.32C311.44 749.15 312.79 749 313.75 749.01C314.96 749.02 313.6 747.02 309.36 742.56C305.98 739 302.72 736.3 302.11 736.55C301.5 736.8 300.77 736.55 300.5 736C300.18 735.36 286.17 735 261.5 735C236.5 735 223 734.65 223 734C223 733.45 222.12 733 221.05 733C219.98 733 218.85 733.45 218.55 734ZM325.55 734C325.25 734.55 325.23 735.45 325.5 736C325.78 736.56 330 737 335 737C341.41 737 344.94 737.48 347.25 738.66C349.04 739.57 356.13 744.09 363 748.7C374.06 756.11 375.95 757.05 379.41 756.79C382.19 756.58 383.42 756 383.66 754.75C383.85 753.79 383.55 753 383 753C382.45 753 382.23 752.55 382.5 752C382.77 751.45 382.77 751 382.5 751C382.23 751 380.88 751.67 379.5 752.5C377.08 753.95 376.54 753.69 362.75 744.5L348.5 735C333.75 735 330 734.59 330 734C330 733.45 329.12 733 328.05 733C326.98 733 325.85 733.45 325.55 734ZM408.87 735.08C407.57 736.22 407.17 736.78 407.98 736.33C409.12 735.69 409.29 735.9 408.73 737.25C408.29 738.3 408.4 738.8 409 738.5C409.55 738.23 410 738.45 410 739C410 739.55 411.46 739.27 413.25 738.38C415.64 737.18 418.08 736.9 422.5 737.3C425.8 737.6 429.34 737.99 430.36 738.17C431.39 738.35 432.58 737.73 433.03 736.78C433.47 735.83 433.51 734.5 433.12 733.83C432.56 732.87 432.09 732.87 431 733.8C430.23 734.46 426.86 735 423.51 735C420.16 735 417.1 734.55 416.71 734C416.32 733.45 414.93 733 413.62 733C412.32 733 410.18 733.93 408.87 735.08ZM443.55 734C443.25 734.55 443.26 735.34 443.58 735.75C443.9 736.16 461.56 736.76 482.83 737.08C504.1 737.39 522.34 737.84 523.36 738.08C524.4 738.31 525.73 737.74 526.36 736.78C527.16 735.57 527.19 734.69 526.45 733.83C525.63 732.87 525.09 732.87 524 733.8C522.97 734.69 512.87 735 485.3 735C461.1 735 448 734.65 448 734C448 733.45 447.12 733 446.05 733C444.98 733 443.85 733.45 443.55 734ZM537.07 734.75C538.09 736.37 540.82 736.48 574.83 736.23C598.09 736.05 612.51 736.33 614.25 736.98C615.76 737.54 617.67 737.77 618.5 737.5C619.33 737.23 620 736.33 620 735.5C620 734.67 619.55 733.77 619 733.5C618.45 733.23 617.2 733.45 616.22 734C615.03 734.67 614.2 734.67 613.72 734C613.26 733.36 599.09 733 574.49 733C538.05 733 536.03 733.09 537.07 734.75ZM630 734C630 734.55 630.56 735.31 631.25 735.68C631.94 736.05 639.7 736.28 648.5 736.18C657.3 736.08 664.95 735.6 665.5 735.11C666.15 734.53 665.97 733.96 665 733.48C664.17 733.08 662.46 733.37 661.19 734.13C659.33 735.24 658.51 735.26 656.94 734.25C655.65 733.42 650.8 733 642.5 733C634.83 733 630 733.39 630 734ZM693.5 734.59C694.98 735.69 698.98 736.14 709 736.34C716.42 736.5 723.51 736.93 724.75 737.31C726.3 737.78 727.23 737.52 727.75 736.46C728.16 735.62 728.05 734.46 727.5 733.88C726.8 733.15 725.82 733.16 724.25 733.92C722.77 734.63 721.83 734.66 721.5 734C721.2 733.4 715.14 733.02 706.25 733.05C692.98 733.1 691.7 733.25 693.5 734.59ZM738.55 734C738.25 734.55 738.26 735.34 738.58 735.75C738.9 736.16 756.56 736.76 777.83 737.08C799.1 737.39 817.34 737.84 818.36 738.08C819.4 738.31 820.73 737.74 821.36 736.78C822.16 735.57 822.19 734.69 821.45 733.83C820.63 732.87 820.09 732.87 819 733.8C817.97 734.69 807.87 735 780.3 735C756.1 735 743 734.65 743 734C743 733.45 742.12 733 741.05 733C739.98 733 738.85 733.45 738.55 734ZM832 734C832 734.55 832.56 735.3 833.25 735.67C833.94 736.05 841.7 736.3 850.49 736.24C859.29 736.18 866.94 735.7 867.49 735.17C868.16 734.53 868 733.97 867 733.48C866.17 733.08 864.46 733.37 863.19 734.13C861.33 735.24 860.51 735.26 858.94 734.25C857.65 733.42 852.8 733 844.5 733C836.83 733 832 733.39 832 734ZM881.28 734.74C882.83 736.27 884.69 736.46 895.28 736.19C902.34 736 908.66 736.32 910.25 736.94C911.76 737.52 913.67 737.77 914.5 737.5C915.33 737.23 916 736.33 916 735.5C916 734.67 915.55 733.77 915 733.5C914.45 733.23 913.1 733.45 912 734C910.67 734.67 909.83 734.67 909.5 734C909.2 733.4 903.07 733 894.25 732.99C880.16 732.98 879.58 733.05 881.28 734.74ZM940.97 733.25C940.95 733.39 941.74 734.48 942.72 735.68C943.99 737.23 944.93 737.59 946 736.94C946.83 736.44 959.76 736.02 974.75 736.02C990.62 736.01 1003.04 736.42 1004.5 737C1005.88 737.55 1007.67 737.77 1008.5 737.5C1009.33 737.23 1010 736.33 1010 735.5C1010 734.67 1009.55 733.77 1009 733.5C1008.45 733.23 1007.1 733.45 1005.99 734C1004.65 734.67 1003.82 734.67 1003.49 734C1003.18 733.36 991.73 733 972 733C954.95 733 940.99 733.11 940.97 733.25Z" /><path class="shp5" d="M691 734.5C691 734.77 692.13 736.35 693.5 738C695.8 740.76 696 741.8 696 751C696 759 696.3 761.1 697.5 761.5C698.33 761.77 699 762.67 699 763.5C699 764.33 698.44 765.13 697.75 765.29C697.06 765.44 687.61 765.44 676.75 765.29C657.11 765 657 764.99 656.75 762.75C656.61 761.51 656.61 756.11 656.75 750.75C656.94 743.46 657.32 741.11 658.25 741.45C658.94 741.69 660.5 740.9 661.73 739.7C662.95 738.49 663.97 737.16 663.98 736.75C663.99 736.34 656.84 736.11 648.08 736.25C639.33 736.39 631.79 736.15 631.33 735.72C630.87 735.29 630.16 734.96 629.75 734.97C629.34 734.99 629 750.3 629 769L629 803C664.85 803.09 666.37 802.95 665 801.5C664.17 800.63 662.83 799.94 662 799.98C661.17 800.01 659.49 799.13 658.25 798.02C657.01 796.91 656.23 795.33 656.5 794.5C656.77 793.67 657 789.17 657 784.5C657 778.07 657.3 776.14 658.25 776.56C658.94 776.86 659.84 776.41 660.25 775.56C660.89 774.24 663.65 774 678.5 774L696 774C695.97 791.21 696.37 794.91 697.23 795.77C698.24 796.77 698.24 797.03 697.25 797.02C696.56 797.01 694.65 797.9 693 799C691.35 800.1 690 801.45 690 802C690 802.63 697 803 709 803C726.42 803 728 802.85 728.01 801.25C728.02 800.29 727.11 798.83 726 798C724.05 796.55 723.98 795.44 723.99 767.25L724 738C720.38 736.21 715 735.88 708 736.05C700.67 736.23 695.68 735.91 694.25 735.17C693.01 734.52 691.77 734 691.5 734C691.23 734 691 734.23 691 734.5ZM879.03 734.75C879.04 735.16 880.17 736.96 881.53 738.75C883.97 741.96 884 742.24 884 762.5C884 775.17 884.38 783.19 885 783.5C885.55 783.77 886 784.9 886 786C886 787.1 885.44 788.13 884.75 788.28C884.06 788.43 877.99 788.43 871.25 788.28C862.43 788.08 858.93 787.65 858.75 786.75C858.61 786.06 858.61 775.49 858.75 763.25C858.94 745.96 859.28 741.1 860.25 741.45C860.94 741.69 862.5 740.9 863.73 739.7C864.95 738.49 865.97 737.16 865.98 736.75C865.99 736.34 858.84 736.11 850.08 736.25C841.33 736.39 833.79 736.15 833.33 735.72C832.87 735.29 832.16 734.96 831.75 734.97C831.34 734.99 831 750.3 831 769L831 803C912.32 803 915 802.89 915.04 801.25C915.07 800.29 914.37 798.83 913.5 798C912.12 796.69 911.92 792.72 911.96 767.25C912 738.98 911.93 737.97 910 737C908.9 736.45 902.41 736.11 895.55 736.25C886.56 736.43 882.73 736.15 881.8 735.23C881.08 734.54 880.16 733.97 879.75 733.98C879.34 733.99 879.01 734.34 879.03 734.75Z" /><path class="shp4" d="M935.07 741.16C930.73 746.05 929.5 748 930.75 748.01C931.71 748.02 934.47 746 936.89 743.51C939.3 741.03 941.89 739 942.64 739C943.39 739 944.06 738.52 944.14 737.93C944.22 737.34 943.58 736.28 942.71 735.58C941.37 734.49 940.27 735.29 935.07 741.16Z" /><path fill-rule="evenodd" class="shp5" d="M1.74 734.97C2.16 734.96 2.73 735.2 3 735.51C3.28 735.82 19.02 736.06 72.5 736L96.04 759.5L96.01 771C95.98 781.4 96.17 782.64 98 784C99.11 784.83 100.02 786.29 100.01 787.25C100 788.88 97.71 789 66 789C44 789 32 789.35 32 790C32 790.55 31.33 791 30.5 791C29.38 791 29 792.19 29.01 795.75C29.02 798.36 28.75 801.85 28.41 803.5C27.82 806.33 28.07 806.62 32.89 808.75C35.7 809.99 38 811.45 38 812C38 812.64 31.42 812.91 1.5 812.5L1.24 773.75C1.09 752.44 1.32 734.99 1.74 734.97ZM31.81 762.5C32.37 763.6 33.08 765.29 33.41 766.25C33.73 767.21 34.9 768 36 768C37.1 768 38.23 767.55 38.5 767C38.77 766.45 42.83 766 47.5 766C52.17 766 56.23 766.45 56.5 767C56.77 767.55 58.35 768 60 768C61.65 768 63.22 767.55 63.5 767C63.78 766.45 65.01 766 66.25 766C68.32 766 68.48 765.59 68.25 761L68 756C32.3 756 32.1 756.02 31.46 758.25C31.1 759.49 31.26 761.4 31.81 762.5ZM109.75 734.97C110.16 734.96 110.72 735.2 111 735.51C111.28 735.82 128.15 736.06 185.5 736.02L204.04 754.5L203.99 761C203.94 766.3 204.32 767.87 206 769.5C207.14 770.6 208.05 772.06 208.03 772.75C208.01 773.66 205.07 774.05 197.25 774.18C191.34 774.28 185.72 774.39 184.76 774.43C183.59 774.48 183.02 775.32 183.02 777C183.01 778.8 185.33 781.82 191.26 787.76C195.79 792.3 200.06 796.01 200.75 796.01C201.44 796 201.98 796.34 201.96 796.75C201.94 797.16 203.31 798.17 205 799C206.69 799.83 208.06 801.06 208.04 801.75C208.01 802.7 204.16 803 176.5 803.01L162 788.5C151.09 777.58 146.88 773.99 145 773.98C143.63 773.98 141.27 774.55 139.76 775.24C137.09 776.47 137.01 776.74 136.76 785.75C136.62 790.84 136.5 795.56 136.5 796.25C136.5 796.94 138.53 798.53 141 799.79C143.47 801.05 145.72 802.3 146 802.57C146.28 802.84 138.06 803.04 109 803L109 769C109 750.3 109.34 734.99 109.75 734.97ZM139.81 757.5C140.37 758.6 141.08 760.29 141.41 761.25C141.94 762.81 143.58 763 156.5 763C165.5 763 171 762.62 171 762C171 761.45 172.24 761 173.75 761C176.42 761 176.49 760.85 176.25 756L176 751C140.3 751 140.1 751.02 139.46 753.25C139.1 754.49 139.26 756.4 139.81 757.5ZM218.23 735.77C219.21 736.74 228.17 737.03 295.5 737.05L310.95 752.5L310.98 774.25C311 792.23 311.26 796.26 312.5 797.5C313.32 798.33 314 799.9 314 801C314 802.97 313.34 803 231.5 802.98L216.98 788.5L216.97 761.5C216.97 739.71 217.21 734.74 218.23 735.77ZM247 767C247 773.6 247.42 779.79 247.93 780.75C248.44 781.71 249.11 783.29 249.43 784.25C249.94 785.81 251.55 786 264 786C272.33 786 278.2 785.6 278.5 785C278.77 784.45 280.13 784 281.5 784L284 784L284 752C251.09 752 248.07 752.24 247.58 753.5C247.26 754.33 247 760.4 247 767ZM325.23 735.77C326.08 736.61 329.6 737.03 345 737L360 747C371.86 754.9 375.73 757 378.5 757C381.12 757 385.32 754.97 395.25 748.89C402.54 744.43 410.19 739.93 412.25 738.89C414.57 737.72 418.1 737 421.5 737C425.06 737 427.53 737.53 428.5 738.5C429.76 739.76 430 744.44 430 768C430 791.56 430.24 796.24 431.5 797.5C432.32 798.33 433 799.9 433 801C433 802.93 432.33 803 415 803C398.8 803 397.02 802.83 397.25 801.34C397.39 800.43 398.85 798.99 403.5 796.62L403.17 782.06C402.99 774.05 402.65 767.39 402.42 767.25C402.19 767.11 396.6 770.38 378 782L366.5 774.5C360.18 770.38 354.77 767 354.5 767C354.23 767 354 767.67 354 768.5C354 769.39 353.39 769.8 352.5 769.5C351.22 769.07 351 770.78 351 781C351 787.6 350.74 793.56 350.43 794.25C350.11 794.94 350.56 796.29 351.43 797.25C352.29 798.21 354.36 799.34 356.02 799.75C357.69 800.16 359.04 801.06 359.02 801.75C359.01 802.7 354.82 803 324 803L323.98 768.75C323.97 741.11 324.21 734.74 325.23 735.77Z" /><path class="shp4" d="M395.49 742.64C388.9 746.72 383.16 750.72 382.75 751.53C382.34 752.34 382.45 753 383 753C383.55 753 383.77 753.45 383.5 754C383.23 754.55 383.34 755 383.75 754.99C384.16 754.99 390.24 751.5 397.26 747.24C404.28 742.98 410.03 739.27 410.03 739C410.03 738.73 409.46 737.76 408.76 736.86C407.61 735.39 406.25 735.98 395.49 742.64Z" /><path class="shp5" d="M442.05 737.21C442.01 738.86 445.91 743.43 455.94 753.5C463.62 761.2 469.7 767.84 469.45 768.25C469.2 768.66 469.56 769.68 470.25 770.52C471.31 771.8 469.65 773.88 459.5 784.03C449.94 793.6 446.94 796.03 444.75 796.02C442.27 796 442 796.34 442 799.5L442 803C525.33 803 526 802.97 526 801C526 799.9 525.33 798.33 524.5 797.5C523.67 796.67 522.99 794.99 522.98 793.75C522.98 792.51 522.54 790.83 522.02 790C521.26 788.79 518.06 788.45 505.54 788.25L490 788C490.43 783.22 491.15 782.38 493 782C494.38 781.73 498.07 778.8 501.21 775.5L506.92 769.5C502.72 768.36 500.82 767.45 500 766.76C499.18 766.06 496.59 763.35 494.25 760.74C491.91 758.13 490 755.1 490 754C490 752.09 490.66 752 504.25 752.02L518.5 752.03C523.51 757.04 525.31 758.14 525.74 757.7C526.16 757.25 525.9 755 525.18 752.7C524.45 750.39 523.55 746.35 523.18 743.73C522.8 741.1 521.83 738.52 521 737.99C520.11 737.42 504.52 737.02 482.75 737.02C459.36 737.01 445.29 736.62 444.06 735.96C442.4 735.08 442.11 735.27 442.05 737.21ZM535.44 735.69C535.02 736.05 534.74 740.98 534.83 746.67C534.92 752.35 535.23 757 535.5 757C535.77 757 537.8 755.65 540 754C543.75 751.19 544.56 751 553 751L562 751L562 803C590.61 803 593 802.77 593 801.5C593 800.67 592.33 799.33 591.5 798.5C590.26 797.26 590 793.22 590 775C590 756.11 590.21 753 591.5 753C592.33 753 593 752.55 593 752C593 751.4 596.72 751.02 602.25 751.04C611.2 751.08 611.61 751.19 615 754.24C618.17 757.09 618.53 757.21 618.82 755.45C619 754.38 618.43 751.7 617.55 749.5C616.67 747.3 615.96 743.81 615.98 741.75C615.99 738.98 615.47 737.74 614 737C612.77 736.39 597.67 736 575 736C554.65 736 537.6 735.79 537.11 735.53C536.62 735.27 535.87 735.34 535.44 735.69ZM737.05 737.21C737.01 738.86 740.91 743.43 750.94 753.5C758.62 761.2 764.7 767.84 764.45 768.25C764.2 768.66 764.56 769.68 765.25 770.52C766.31 771.8 764.65 773.88 754.5 784.03C744.94 793.6 741.94 796.03 739.75 796.02C737.27 796 737 796.34 737 799.5L737 803C820.33 803 821 802.97 821 801C821 799.9 820.33 798.33 819.5 797.5C818.67 796.67 817.99 794.99 817.98 793.75C817.98 792.51 817.54 790.83 817.02 790C816.26 788.79 813.06 788.45 800.54 788.25L785 788C785.43 783.22 786.15 782.38 788 782C789.38 781.73 793.07 778.8 796.21 775.5L801.92 769.5C797.72 768.36 795.83 767.45 795 766.76C794.17 766.06 791.59 763.35 789.25 760.74C786.91 758.13 785 755.1 785 754C785 752.09 785.66 752 799.25 752.02L813.5 752.03C818.51 757.04 820.31 758.14 820.74 757.7C821.16 757.25 820.9 755 820.18 752.7C819.45 750.39 818.55 746.35 818.18 743.73C817.8 741.1 816.83 738.52 816 737.99C815.11 737.42 799.52 737.02 777.75 737.02C754.36 737.01 740.29 736.62 739.06 735.96C737.4 735.08 737.11 735.27 737.05 737.21ZM943.43 738.87C941.27 740.45 938.15 743.16 936.5 744.89C934.38 747.12 932.62 748.02 930.5 747.98C928.85 747.94 926.96 748.49 926.3 749.21C925.35 750.24 928.71 754.13 942.8 768.32C959.55 785.18 960.39 786.21 958.5 787.52C957.08 788.5 955.85 788.62 954.25 787.95C953.01 787.43 947.39 787.01 941.75 787.02C931.5 787.04 931.5 787.04 928.21 783.77L924.91 780.5L925 803C1003.67 803 1009 802.81 1009 801.5C1009 800.67 1008.33 799.33 1007.5 798.5C1006.65 797.65 1005.99 795.16 1005.97 792.75C1005.94 788.6 1005.55 788.11 989.42 772C977.41 760.01 972.99 754.95 973.21 753.5C973.51 751.62 974.4 751.48 987.51 751.25L1001.5 750.99C1006.51 756.04 1008.31 757.14 1008.74 756.7C1009.16 756.25 1008.89 754 1008.15 751.7C1007.41 749.39 1006.58 745.48 1006.32 743C1006.04 740.45 1005.11 737.95 1004.17 737.23C1002.91 736.28 995.66 735.97 974.93 735.98L947.35 736" /><path class="shp4" d="M615.76 742.62C616.17 745.48 616.85 748.19 617.28 748.66C617.71 749.12 618.04 747.36 618.03 744.75C618.01 742.14 618.23 739.44 618.51 738.75C618.82 738 618.22 737.49 617.02 737.46C615.17 737.43 615.07 737.84 615.76 742.62ZM911.76 766.96C911.95 784.46 912.47 796.91 913.05 797.5C913.69 798.15 914.03 788.37 914.02 769.25C914.01 753.16 914.23 739.44 914.51 738.75C914.8 738.03 914.26 737.48 913.24 737.46C911.56 737.43 911.47 739.16 911.76 766.96ZM1005.76 742.62C1006.17 745.48 1006.85 748.19 1007.28 748.66C1007.71 749.12 1008.04 747.36 1008.03 744.75C1008.01 742.14 1008.23 739.44 1008.51 738.75C1008.82 738 1008.22 737.49 1007.02 737.46C1005.17 737.43 1005.07 737.84 1005.76 742.62ZM84 747.5C89.22 752.73 93.72 757.01 94 757.01C94.28 757.01 90.36 752.74 85.29 747.51C80.22 742.28 75.72 738 75.29 737.99C74.86 737.99 78.78 742.27 84 747.5ZM194.5 745C198.35 748.86 201.72 752.02 202 752.02C202.28 752.02 199.49 748.86 195.8 745.01C192.12 741.15 188.74 738 188.3 737.99C187.86 737.99 190.65 741.14 194.5 745Z" /><path class="shp1" d="M724.44 767.5C724.44 784 724.58 790.98 724.75 783C724.92 775.02 724.92 761.52 724.75 753C724.58 744.48 724.44 751 724.44 767.5Z" /><path class="shp4" d="M725.44 767.5C725.44 784 725.58 790.98 725.75 783C725.92 775.02 725.92 761.52 725.75 753C725.58 744.48 725.44 751 725.44 767.5ZM430 768C430 786.67 430.36 797 431 797C431.64 797 432 786.67 432 768C432 749.33 431.64 739 431 739C430.36 739 430 749.33 430 768ZM523.02 743.25C523.02 745.59 523.47 748.17 524 749C524.69 750.06 524.97 748.83 524.98 744.75C524.99 741.57 524.55 739 524 739C523.45 739 523.01 740.91 523.02 743.25ZM818.02 743.25C818.02 745.59 818.47 748.17 819 749C819.69 750.06 819.97 748.83 819.98 744.75C819.99 741.57 819.55 739 819 739C818.45 739 818.01 740.91 818.02 743.25ZM656.91 752.07C656.69 757.08 656.61 761.36 656.75 761.59C656.89 761.81 658.01 761.04 659.25 759.87C660.75 758.46 661.08 757.62 660.25 757.37C659.4 757.12 659.03 754.92 659.1 750.56C659.16 747.02 658.78 743.86 658.27 743.54C657.72 743.21 657.16 746.77 656.91 752.07ZM859.1 762.94C859.01 780.15 859.21 783 860.5 783C861.33 783 862.23 782.55 862.5 782C862.77 781.45 862.55 780.77 862 780.5C861.38 780.19 861.04 773.12 861.1 762.06C861.16 751.06 860.82 743.88 860.2 743.5C859.55 743.1 859.17 749.85 859.1 762.94ZM310.49 750.75C310.77 751.44 311 762.13 311 774.5C311 788.83 311.36 797 312 797C312.64 797 313 788.83 313 774.5C313 760.5 313.38 751.81 314 751.5C314.55 751.23 314.91 750.56 314.8 750.01C314.69 749.47 313.56 749.13 312.28 749.26C310.88 749.41 310.17 749.99 310.49 750.75Z" /><path class="shp3" d="M973.83 752.58C972.68 753.92 974.64 756.25 988.5 769.98C997.81 779.22 1005.13 785.7 1006 785.5C1006.83 785.31 1008.17 785.12 1009 785.08C1009.83 785.04 1003.3 777.78 994.5 768.94C985.7 760.1 977.75 752.46 976.83 751.96C975.67 751.32 974.75 751.51 973.83 752.58Z" /><path class="shp4" d="M204.56 759.96C204.86 763.56 205.26 767.17 205.44 768C205.62 768.83 205.82 766.24 205.88 762.25C205.95 758.16 206.44 755 207 755C207.55 755 207.9 754.65 207.79 754.21C207.67 753.78 206.77 753.43 205.79 753.43C204.2 753.43 204.07 754.15 204.56 759.96Z" /><path class="shp3" d="M490.51 754.42C490.34 755.01 493.09 758.54 496.6 762.25C502.1 768.05 503.28 768.86 505 768C506.51 767.24 506.78 766.57 506.08 765.25C505.57 764.29 502.85 761.25 500.03 758.5C497.21 755.75 493.98 753.46 492.86 753.42C491.73 753.38 490.68 753.83 490.51 754.42ZM785.51 754.42C785.34 755.01 788.09 758.54 791.6 762.25C797.1 768.05 798.28 768.86 800 768C801.51 767.24 801.78 766.57 801.08 765.25C800.57 764.29 797.85 761.25 795.03 758.5C792.21 755.75 788.98 753.46 787.86 753.42C786.73 753.38 785.68 753.83 785.51 754.42Z" /><path class="shp4" d="M137.02 756.75C137.01 758.98 137.47 760 138.5 760C139.32 760 140.19 759.66 140.42 759.25C140.65 758.84 139.99 757.38 138.94 756L137.04 753.5M590.43 775.5C590.43 787.6 590.57 792.33 590.75 786C590.92 779.67 590.92 769.77 590.75 764C590.57 758.23 590.43 763.4 590.43 775.5Z" /><path class="shp1" d="M204.33 761.5C204.33 765.35 204.51 766.7 204.73 764.5C204.94 762.3 204.94 759.15 204.72 757.5C204.5 755.85 204.32 757.65 204.33 761.5Z" /><path class="shp4" d="M245.1 768.94C245.02 780.82 245.23 783 246.5 783C247.32 783 248.22 782.55 248.5 782C248.78 781.45 248.55 780.77 248 780.5C247.41 780.2 247.04 775.13 247.1 768.06C247.16 761.06 246.79 755.86 246.2 755.5C245.56 755.1 245.17 759.85 245.1 768.94ZM988.5 771C996.75 779.25 1003.73 786.01 1004 786.01C1004.27 786.01 997.87 779.26 989.77 771C981.68 762.75 974.7 756 974.27 756C973.85 755.99 980.25 762.75 988.5 771ZM96.6 767.96C96.85 773.21 97.2 778.85 97.37 780.5C97.54 782.15 97.75 778.21 97.84 771.75C97.94 764.69 98.4 760 99 760C99.55 760 99.9 759.65 99.79 759.21C99.67 758.78 98.8 758.43 97.85 758.43C96.32 758.43 96.19 759.44 96.6 767.96Z" /><path class="shp3" d="M138.25 759.75C137.01 759.89 136.01 760.34 136.03 760.75C136.05 761.16 136.61 762.25 137.28 763.16C138.33 764.58 141.2 764.85 158 765.07C177.34 765.33 177.5 765.31 177.75 763.17C177.96 761.31 177.5 761 174.5 761C172.57 761 171 761.45 171 762C171 762.62 165.5 763 156.5 763C143.64 763 141.92 762.8 141.25 761.25C140.8 760.19 139.61 759.6 138.25 759.75ZM658.74 760.39C657.78 761.27 657.23 762.67 657.5 763.5C657.91 764.74 660.93 765.04 675 765.25C684.35 765.39 693.24 765.5 694.75 765.5C696.83 765.5 697.5 765.02 697.5 763.5C697.5 762.01 696.74 761.43 694.5 761.21C692.85 761.05 691.07 761.38 690.55 761.96C689.98 762.58 684.11 763 675.8 763C662.66 763 661.96 762.9 661.24 760.89C660.54 758.93 660.35 758.89 658.74 760.39Z" /><path class="shp1" d="M96.38 771.5C96.38 778.1 96.55 780.58 96.74 777C96.94 773.42 96.93 768.02 96.74 765C96.54 761.98 96.38 764.9 96.38 771.5Z" /><path class="shp3" d="M29.93 764.28C28.64 764.84 27.68 765.91 27.79 766.65C27.91 767.39 29.01 768.2 30.25 768.44C31.49 768.69 39.7 769.14 48.5 769.45C57.3 769.75 65.63 770.11 67 770.25C68.94 770.44 69.56 770 69.75 768.25C69.96 766.36 69.52 766 67 766C65.35 766 63.78 766.45 63.5 767C63.22 767.55 61.65 768 60 768C58.35 768 56.77 767.55 56.5 767C56.23 766.45 52.27 766 47.7 766C43.1 766 38.98 766.47 38.45 767.06C37.93 767.65 36.62 767.99 35.55 767.81C34.47 767.64 33.3 766.55 32.93 765.38C32.37 763.58 31.92 763.41 29.93 764.28Z" /><path class="shp4" d="M350.9 782.48C350.68 789.37 350.73 795.01 351 795.02C351.27 795.03 352.4 794.42 353.5 793.67C354.94 792.68 355.15 792.12 354.25 791.65C353.37 791.19 353.03 788.09 353.1 781.06C353.16 775.59 352.78 770.86 352.26 770.54C351.69 770.19 351.15 774.95 350.9 782.48ZM456.29 782.78C450.12 789.22 445.4 794.85 445.79 795.28C446.18 795.72 451.79 790.77 458.26 784.28C464.72 777.8 470.01 772.16 470.01 771.75C470 771.34 469.44 771.01 468.75 771.03C468.06 771.04 462.45 776.33 456.29 782.78ZM751.29 782.78C745.12 789.22 740.4 794.85 740.79 795.28C741.18 795.72 746.79 790.77 753.26 784.28C759.72 777.8 765.01 772.16 765.01 771.75C765 771.34 764.44 771.01 763.75 771.03C763.06 771.04 757.45 776.33 751.29 782.78Z" /><path class="shp0" d="M458.48 784.25L447.5 795.5C464.95 778.45 470.01 773.39 470.01 773.25C470 773.11 469.88 773 469.73 773C469.59 773 464.52 778.06 458.48 784.25ZM753.48 784.25L742.5 795.5C759.95 778.45 765.01 773.39 765.01 773.25C765 773.11 764.88 773 764.73 773C764.59 773 759.52 778.06 753.48 784.25Z" /><path class="shp3" d="M182.97 776.76C182.97 777.72 187.36 782.87 192.73 788.22C200.8 796.25 202.98 797.91 205.25 797.72C206.77 797.6 208.01 797.27 208.01 797C208.01 796.73 203.27 791.77 197.47 786C191.67 780.23 186.04 775.39 184.96 775.26C183.66 775.1 182.98 775.61 182.97 776.76Z" /><path class="shp4" d="M136.91 786.49C136.69 791.72 136.72 796.01 137 796.02C137.28 796.03 138.4 795.38 139.5 794.58C141.12 793.41 141.26 792.89 140.23 791.82C139.46 791.01 139.01 788.1 139.09 784.31C139.15 780.9 138.78 777.86 138.26 777.54C137.72 777.21 137.15 780.92 136.91 786.49ZM657.02 784.75C657.01 789.29 656.77 793.67 656.5 794.5C656.23 795.33 656.34 796.01 656.75 796.02C657.16 796.03 658.4 795.38 659.5 794.58C661.12 793.41 661.26 792.89 660.23 791.82C659.52 791.08 658.97 788.08 658.97 785C658.97 781.98 658.53 778.83 658 778C657.33 776.96 657.03 779.05 657.02 784.75Z" /><path class="shp3" d="M925.37 778.74C924.98 779.06 924.72 779.6 924.79 779.92C924.86 780.24 926.39 781.97 928.21 783.77C931.5 787.04 931.51 787.04 942 787.09C947.77 787.12 953.4 787.5 954.5 787.93C955.6 788.37 957.06 788.56 957.75 788.36C958.44 788.16 959 787.55 959 787C959 786.45 958.33 785.33 957.5 784.5C956.67 783.67 954.88 783 953.5 783C952.13 783 951 783.45 951 784C951 784.59 947.41 785 942.25 785.01C936.1 785.01 932.83 784.57 931.25 783.51C930.01 782.68 928.98 781.37 928.95 780.61C928.93 779.84 928.27 778.97 927.49 778.68C926.71 778.38 925.76 778.41 925.37 778.74Z" /><path class="shp4" d="M191 787.5C195.68 792.18 199.72 796.01 200 796.01C200.28 796.01 196.81 792.19 192.29 787.51C187.78 782.83 183.73 779 183.29 778.99C182.86 778.99 186.32 782.82 191 787.5Z" /><path class="shp3" d="M521 782C519.63 783.08 517.6 783.97 516.51 783.98C515.41 783.99 514.4 784.45 514.26 785C514.11 785.57 510.04 786.02 504.75 786.04C497.55 786.08 495.17 785.74 494 784.5C493.18 783.63 491.94 782.93 491.25 782.96C490.56 782.98 489.98 783.56 489.96 784.25C489.93 784.94 490.49 786.02 491.21 786.66C492.03 787.4 497.42 787.89 506 788.01C513.42 788.11 520.17 788.14 521 788.07C521.83 787.99 523.51 787.05 524.75 785.97C526.19 784.71 526.82 783.28 526.5 782C526.23 780.9 525.44 780.01 524.75 780.02C524.06 780.03 522.38 780.92 521 782ZM816 782C814.63 783.08 812.6 783.97 811.51 783.98C810.41 783.99 809.4 784.45 809.26 785C809.11 785.57 805.04 786.02 799.75 786.04C792.55 786.08 790.17 785.74 789 784.5C788.17 783.63 786.94 782.93 786.25 782.96C785.56 782.98 784.98 783.56 784.96 784.25C784.93 784.94 785.49 786.02 786.21 786.66C787.03 787.4 792.42 787.89 801 788.01C808.42 788.11 815.17 788.14 816 788.07C816.83 787.99 818.51 787.05 819.75 785.97C821.19 784.71 821.82 783.28 821.5 782C821.23 780.9 820.44 780.01 819.75 780.02C819.06 780.03 817.38 780.92 816 782ZM246.25 782.75C245.01 782.89 244.01 783.34 244.03 783.75C244.05 784.16 244.61 785.24 245.28 786.16C246.33 787.58 249.17 787.85 265.5 788.07C284.34 788.34 284.5 788.32 284.75 786.17C284.96 784.37 284.49 784 282 784C280.35 784 278.77 784.45 278.5 785C278.2 785.6 272.33 786 264 786C251.62 786 249.91 785.8 249.25 784.25C248.8 783.19 247.61 782.6 246.25 782.75ZM860.25 782.75C859.01 782.89 858 783.45 858 784C858 784.55 858.56 785.62 859.25 786.37C860.13 787.34 863.95 787.86 872.2 788.12C879.14 788.35 884.37 788.09 885.06 787.5C885.69 786.95 885.94 785.94 885.61 785.25C885.27 784.56 883.65 784 882 784C880.35 784 878.77 784.45 878.5 785C878.23 785.55 874.85 786 871 786C865.29 786 863.86 785.68 863.25 784.25C862.8 783.19 861.61 782.6 860.25 782.75Z" /><path class="shp4" d="M524 786.2C523.1 786.97 522.67 789.11 522.8 792.2C522.91 794.84 523.45 797 524 797C524.55 797 525.11 794.3 525.25 791C525.39 787.7 525.48 785 525.45 785C525.42 785 524.77 785.54 524 786.2ZM819 786.2C818.1 786.97 817.67 789.11 817.8 792.2C817.91 794.84 818.45 797 819 797C819.55 797 820.11 794.3 820.25 791C820.39 787.7 820.48 785 820.45 785C820.42 785 819.77 785.54 819 786.2ZM1005.49 786.75C1005.77 787.44 1006 790.25 1006 793C1006 795.75 1006.45 798 1007 798C1007.55 798 1008 795.75 1008 793C1008 790.25 1008.45 787.77 1009 787.5C1009.55 787.23 1009.91 786.56 1009.8 786.01C1009.69 785.47 1008.56 785.13 1007.28 785.26C1005.88 785.41 1005.17 785.99 1005.49 786.75ZM28.92 798C28.56 803.21 28.73 804 30.25 804C31.21 804 32.31 803.44 32.69 802.75C33.07 802.06 32.84 801.39 32.19 801.25C31.49 801.1 31.04 799.37 31.1 797.06C31.16 794.89 30.79 792.86 30.27 792.56C29.76 792.24 29.16 794.66 28.92 798Z" /><path class="shp3" d="M351.94 794.37C349.96 795.41 349.92 795.63 351.4 797.25C352.28 798.21 354.24 799.26 355.75 799.58C357.26 799.9 358.73 799.92 359 799.62C359.27 799.33 358.28 797.77 356.79 796.17C354.47 793.66 353.78 793.41 351.94 794.37ZM138 795.43L135.5 796.78C140.93 800.05 142.84 800.99 143.25 801C143.66 801 144.2 800.66 144.44 800.25C144.69 799.84 143.9 798.28 142.69 796.79C140.68 794.29 140.3 794.18 138 795.43ZM658.43 795.45C656.53 796.85 656.53 796.9 658.5 798.41C659.6 799.25 661.29 799.95 662.25 799.97C663.21 799.99 664.01 799.44 664.03 798.75C664.05 798.06 663.23 796.72 662.21 795.76C660.57 794.23 660.12 794.19 658.43 795.45ZM30.25 803.75C29.01 803.89 27.99 804.56 27.98 805.25C27.97 805.94 29.65 807.31 31.73 808.29C33.8 809.28 35.81 809.73 36.18 809.29C36.55 808.86 35.88 807.38 34.68 806C33.35 804.47 31.63 803.6 30.25 803.75Z" /></g></svg>